PathFileType	4	(X/Y/Z)	CPRIT_Patient3_R_KneeIso_Processed.TRC
DataRate	CameraRate	NumFrames	NumMarkers	Units	OrigDataRate	OrigDataStartFrame	OrigNumFrames
150.195058517555	150.195058517555	4	39	m	150.195058517555	579	       771
Frame#	Time	R.Heel			R.Midfoot.Superior			R.Midfoot.Lateral			R.Toe			L.Heel			L.Midfoot.Superior			L.Midfoot.Lateral			L.Toe			R.Shank.Superior			R.Shank.Inferior			R.Shank.Lateral			R.Shank.Posterior			L.Shank.Superior			L.Shank.Inferior			L.Shank.Posterior			L.Shank.Lateral			R.Patella			L.Patella			R.Thigh.Superior			R.Thigh.Lateral			R.Thigh.Inferior			L.Thigh.Superior			L.Thigh.Inferior			L.Thigh.Lateral			L.ASIS			R.ASIS			Sacral			R.Shoulder			L.Shoulder			C7			J.Notch			Sternum			Thoracic			L.Elbow			L.Wrist			R.Elbow			R.Wrist			R.PSIS			L.PSIS			
		X1	Y1	Z1	X2	Y2	Z2	X3	Y3	Z3	X4	Y4	Z4	X5	Y5	Z5	X6	Y6	Z6	X7	Y7	Z7	X8	Y8	Z8	X9	Y9	Z9	X10	Y10	Z10	X11	Y11	Z11	X12	Y12	Z12	X13	Y13	Z13	X14	Y14	Z14	X15	Y15	Z15	X16	Y16	Z16	X17	Y17	Z17	X18	Y18	Z18	X19	Y19	Z19	X20	Y20	Z20	X21	Y21	Z21	X22	Y22	Z22	X23	Y23	Z23	X24	Y24	Z24	X25	Y25	Z25	X26	Y26	Z26	X27	Y27	Z27	X28	Y28	Z28	X29	Y29	Z29	X30	Y30	Z30	X31	Y31	Z31	X32	Y32	Z32	X33	Y33	Z33	X34	Y34	Z34	X35	Y35	Z35	X36	Y36	Z36	X37	Y37	Z37	X38	Y38	Z38	X39	Y39	Z39	

579	3.848329004329	0.489649996313	0.531551019853	0.010188949599	0.579016511683	0.383316263216	0.048161723599	0.489638705548	0.457976403585	0.070903656101	0.565196446639	0.259816725807	0.061623904996	0.653615319017	0.042679374960	-0.090815198128	0.817990295966	0.096230158447	-0.136332597502	0.721098644730	0.032739445917	-0.161260976273	0.932174141619	0.056730168347	-0.163472836730	0.825714978840	0.463624936911	0.090081991107	0.704822372019	0.453475209171	0.069840027950	0.737821843511	0.531122928082	0.127695725343	0.783616978816	0.598629293834	0.068936465985	0.775596453777	0.365702164167	-0.152799692103	0.762680222349	0.237192016882	-0.144012097200	0.632025278674	0.340188327243	-0.144777181514	0.699505398647	0.277128206993	-0.197802251479	0.976321088462	0.505247871901	0.094062819389	0.795549446120	0.466480718453	-0.156213363199	0.867197197765	0.834197629335	0.092588163553	0.831155630657	0.741828686668	0.145742640851	0.948556535751	0.699321320081	0.072503285661	0.846789273950	0.775648645626	-0.178577555126	0.832874529081	0.611003373338	-0.163300053539	0.746719923749	0.703668257710	-0.230173919112	0.837843084578	0.936326840758	-0.167930282501	0.808670502219	0.956132618452	0.070919407147	0.635031452630	0.990751538968	-0.062355018848	0.755427313419	1.451940633291	0.083794386759	0.773270051067	1.463765567046	-0.230058569045	0.706727346988	1.479871015444	-0.075312517244	0.824917417335	1.378033416565	-0.071256807645	0.879030849930	1.198904831412	-0.070143840502	0.621367967882	1.323955545631	-0.082736562030	0.753868811523	1.185721767008	-0.411111694634	0.903194869429	0.987309918165	-0.450441521246	0.667409073114	1.181495955103	0.258765799508	0.736215689328	0.981879300677	0.384168745958	0.634257023909	0.992562104214	-0.024781791365	0.639030346647	0.990591444001	-0.100131973143	
580	3.854987012987	0.490015922058	0.531677912942	0.010048116293	0.579388132638	0.383470663767	0.048124294857	0.489973337761	0.458108231506	0.070772963547	0.565572435903	0.259967274161	0.061560476251	0.653615436877	0.042679363942	-0.090816182499	0.817989856485	0.096229034199	-0.136334537576	0.721099145099	0.032739212604	-0.161261078391	0.932173935089	0.056730383867	-0.163471715255	0.826031171331	0.463863079104	0.090169788289	0.705170282568	0.453677752071	0.069849052057	0.738103863495	0.531345553468	0.127701658337	0.783901605733	0.598860943058	0.068955561018	0.775584142883	0.365701020927	-0.152807662451	0.762676850052	0.237191844485	-0.144012245750	0.632010072444	0.340179409274	-0.144796176789	0.699505059127	0.277123136084	-0.197808342506	0.976634300771	0.505546787701	0.094206159897	0.795533217673	0.466486362641	-0.156209109844	0.867152494908	0.834354174129	0.092659019082	0.831185950230	0.741967028889	0.145815798278	0.948672283674	0.699596234734	0.072606637286	0.846742872151	0.775663358773	-0.178539758961	0.832839293108	0.611014561823	-0.163283144424	0.746604141877	0.703640588930	-0.230166133239	0.837769010456	0.936338832762	-0.167921890747	0.808558667245	0.956156542943	0.070924686698	0.634930253492	0.990739650395	-0.062381748537	0.755301021880	1.451940425167	0.083784791032	0.773153412881	1.463756510454	-0.230070014436	0.706592077864	1.479868317784	-0.075326360504	0.824783891814	1.378044952584	-0.071271487698	0.878927782391	1.198927364704	-0.070143067850	0.621248850150	1.323947255208	-0.082747889573	0.753829770468	1.185704508153	-0.411122452911	0.903186653388	0.987309856436	-0.450441595582	0.667340404978	1.181485568205	0.258771398452	0.736207577786	0.981880886683	0.384166404714	0.634146922891	0.992548181324	-0.024806643372	0.638936078255	0.990576553643	-0.100155227391	
581	3.861645021645	0.490370714402	0.531600546167	0.009943511051	0.579820032059	0.383470167082	0.048140524963	0.490336464844	0.458044692052	0.070684165112	0.566064797965	0.259958110423	0.061567670056	0.653615523944	0.042679480655	-0.090817346186	0.817989458928	0.096227865267	-0.136336525940	0.721099642464	0.032738937850	-0.161261154067	0.932173804120	0.056730479405	-0.163470424096	0.826372358224	0.464054587569	0.090263629509	0.705545128930	0.453779665902	0.069881027928	0.738387687248	0.531486746835	0.127718600746	0.784152048706	0.599024884640	0.068972705517	0.775572620474	0.365699121027	-0.152817618429	0.762675483054	0.237191298038	-0.144012287784	0.631997732368	0.340170310138	-0.144816749029	0.699507433440	0.277117851349	-0.197815834011	0.976955064889	0.505848628125	0.094336684075	0.795520325399	0.466492196605	-0.156206325894	0.867109236156	0.834511866097	0.092720726485	0.831217526441	0.742103217599	0.145882867301	0.948785990403	0.699870758332	0.072696828857	0.846700753973	0.775678441567	-0.178504534765	0.832810384942	0.611026287012	-0.163265230830	0.746509215008	0.703617774905	-0.230161208772	0.837696976201	0.936351542372	-0.167912893997	0.808444575184	0.956181360994	0.070928923574	0.634829336930	0.990726660461	-0.062411978226	0.755168772184	1.451939846559	0.083773170777	0.773037451722	1.463746595839	-0.230082011339	0.706455009720	1.479864485072	-0.075343934479	0.824647292044	1.378055650672	-0.071287127221	0.878822548838	1.198950133104	-0.070140029584	0.621128182264	1.323937386495	-0.082763726072	0.753792277959	1.185687880252	-0.411135789761	0.903179160742	0.987309665834	-0.450442051568	0.667269445310	1.181473258581	0.258774005071	0.736199043721	0.981882330132	0.384163915360	0.634035730141	0.992532686322	-0.024835043558	0.638842701802	0.990560145903	-0.100181740352	
582	3.868303030303	0.490713918681	0.531322615706	0.009876101280	0.580310205083	0.383317437336	0.048210720512	0.490727084263	0.457789564442	0.070638524577	0.566670549669	0.259792193252	0.061646846569	0.653615573409	0.042679719664	-0.090818670758	0.817989102619	0.096226695761	-0.136338524483	0.721100127154	0.032738617264	-0.161261208919	0.932173752039	0.056730470605	-0.163468989427	0.826738104172	0.464199587162	0.090362758789	0.705945957500	0.453782611472	0.069936111250	0.738673310683	0.531547950802	0.127746576304	0.784368729957	0.599122078520	0.068987674917	0.775561762098	0.365696519712	-0.152829513200	0.762675925369	0.237190427484	-0.144012274987	0.631988058845	0.340161002294	-0.144838724442	0.699512225609	0.277112348334	-0.197824681860	0.977283120156	0.506152849516	0.094453498423	0.795510457412	0.466498279217	-0.156205193599	0.867067633978	0.834669869651	0.092771996281	0.831250785402	0.742237016019	0.145943468316	0.948897791250	0.700144467673	0.072772750050	0.846662481197	0.775693912292	-0.178471846416	0.832787126153	0.611038553342	-0.163246631957	0.746433991361	0.703599792981	-0.230159248442	0.837626755825	0.936364964843	-0.167903597981	0.808328532966	0.956206924602	0.070931913885	0.634728754548	0.990712561723	-0.062445488882	0.755030452385	1.451938922130	0.083759693091	0.772922062062	1.463735940455	-0.230094342933	0.706316094567	1.479859509985	-0.075364925232	0.824507734873	1.378065604310	-0.071303552942	0.878715289206	1.198973208890	-0.070134630666	0.621006001651	1.323925893743	-0.082783913527	0.753756217269	1.185671839076	-0.411151292010	0.903172340042	0.987309375580	-0.450442749296	0.667196069670	1.181458962795	0.258773648442	0.736190089880	0.981883609467	0.384161290855	0.633923624719	0.992515591717	-0.024866812808	0.638750164611	0.990542255377	-0.100211351410	
